<?xml version="1.0" encoding="UTF-8"?>
<svg xmlns="http://www.w3.org/2000/svg" viewBox="0 0 960 720" width="960" height="720">
  <style>
    text { font-family: 'Helvetica Neue', Helvetica, Arial, 'PingFang SC', 'Microsoft YaHei', sans-serif; }
  </style>
  <defs>
    <marker id="arrow-blue" markerWidth="10" markerHeight="7" refX="9" refY="3.5" orient="auto">
      <polygon points="0 0, 10 3.5, 0 7" fill="#2563eb"/>
    </marker>
    <filter id="shadow" x="-4%" y="-4%" width="108%" height="112%">
      <feDropShadow dx="0" dy="2" stdDeviation="4" flood-color="#000000" flood-opacity="0.06"/>
    </filter>
  </defs>

  <!-- Background -->
  <rect width="960" height="720" fill="#ffffff"/>

  <!-- Title -->
  <text x="480" y="44" text-anchor="middle" font-size="22" font-weight="700" fill="#111827">Layered Architecture</text>
  <text x="480" y="66" text-anchor="middle" font-size="13" fill="#6b7280">Five layers between the agent and the database</text>

  <!-- Layer 1: AI Agent -->
  <rect x="300" y="96" width="360" height="88" rx="12" ry="12" fill="#eff6ff" stroke="#2563eb" stroke-width="2.5" filter="url(#shadow)"/>
  <text x="480" y="134" text-anchor="middle" font-size="17" font-weight="600" fill="#1e40af">AI Agent</text>
  <text x="480" y="156" text-anchor="middle" font-size="13" fill="#6b7280">LLM with tool-calling capability</text>

  <!-- Arrow 1 -->
  <line x1="480" y1="184" x2="480" y2="224" stroke="#2563eb" stroke-width="2" marker-end="url(#arrow-blue)"/>
  <rect x="449" y="194" width="62" height="18" rx="3" fill="#ffffff"/>
  <text x="480" y="207" text-anchor="middle" font-size="11" fill="#6b7280">tool call</text>

  <!-- Layer 2: bash-tool -->
  <rect x="300" y="232" width="360" height="88" rx="8" ry="8" fill="#ffffff" stroke="#d1d5db" stroke-width="1.5" filter="url(#shadow)"/>
  <text x="480" y="270" text-anchor="middle" font-size="17" font-weight="600" fill="#111827">bash-tool</text>
  <text x="480" y="292" text-anchor="middle" font-size="13" fill="#6b7280">bash &#xB7; readFile &#xB7; writeFile</text>

  <!-- Arrow 2 -->
  <line x1="480" y1="320" x2="480" y2="360" stroke="#2563eb" stroke-width="2" marker-end="url(#arrow-blue)"/>
  <rect x="427" y="330" width="106" height="18" rx="3" fill="#ffffff"/>
  <text x="480" y="343" text-anchor="middle" font-size="11" fill="#6b7280">parse &amp; execute</text>

  <!-- Layer 3: just-bash -->
  <rect x="300" y="368" width="360" height="88" rx="8" ry="8" fill="#ffffff" stroke="#d1d5db" stroke-width="1.5" filter="url(#shadow)"/>
  <text x="480" y="406" text-anchor="middle" font-size="17" font-weight="600" fill="#111827">just-bash</text>
  <text x="480" y="428" text-anchor="middle" font-size="13" fill="#6b7280">commands &#xB7; pipes &#xB7; redirects &#xB7; globs</text>

  <!-- Arrow 3 -->
  <line x1="480" y1="456" x2="480" y2="496" stroke="#2563eb" stroke-width="2" marker-end="url(#arrow-blue)"/>
  <rect x="434" y="466" width="92" height="18" rx="3" fill="#ffffff"/>
  <text x="480" y="479" text-anchor="middle" font-size="11" fill="#6b7280">filesystem ops</text>

  <!-- Layer 4: PostgresFs -->
  <rect x="300" y="504" width="360" height="88" rx="8" ry="8" fill="#ffffff" stroke="#d1d5db" stroke-width="1.5" filter="url(#shadow)"/>
  <text x="480" y="542" text-anchor="middle" font-size="17" font-weight="600" fill="#111827">PostgresFs</text>
  <text x="480" y="564" text-anchor="middle" font-size="13" fill="#6b7280">IFileSystem &#x2192; SQL</text>

  <!-- Arrow 4 -->
  <line x1="480" y1="592" x2="480" y2="624" stroke="#2563eb" stroke-width="2" marker-end="url(#arrow-blue)"/>
  <rect x="441" y="598" width="78" height="18" rx="3" fill="#ffffff"/>
  <text x="480" y="611" text-anchor="middle" font-size="11" fill="#6b7280">SQL queries</text>

  <!-- Layer 5: PostgreSQL (cylinder) -->
  <ellipse cx="480" cy="640" rx="180" ry="18" fill="#dcfce7" stroke="#16a34a" stroke-width="2"/>
  <rect x="300" y="640" width="360" height="48" fill="#dcfce7" stroke="none"/>
  <line x1="300" y1="640" x2="300" y2="688" stroke="#16a34a" stroke-width="2"/>
  <line x1="660" y1="640" x2="660" y2="688" stroke="#16a34a" stroke-width="2"/>
  <ellipse cx="480" cy="688" rx="180" ry="18" fill="#dcfce7" stroke="#16a34a" stroke-width="2"/>
  <text x="480" y="662" text-anchor="middle" font-size="17" font-weight="600" fill="#166534">PostgreSQL</text>
  <text x="480" y="682" text-anchor="middle" font-size="12" fill="#6b7280">vfs_files &#xB7; FTS &#xB7; trigram &#xB7; pgvector &#xB7; RLS</text>
</svg>