<?xml version="1.0" encoding="UTF-8"?>
<svg xmlns="http://www.w3.org/2000/svg" viewBox="0 0 960 600" width="960" height="600">
  <style>
    text { font-family: 'Helvetica Neue', Helvetica, Arial, 'PingFang SC', 'Microsoft YaHei', sans-serif; }
  </style>
  <defs>
    <marker id="arrow-blue" markerWidth="10" markerHeight="7" refX="9" refY="3.5" orient="auto">
      <polygon points="0 0, 10 3.5, 0 7" fill="#2563eb"/>
    </marker>
    <marker id="arrow-orange" markerWidth="10" markerHeight="7" refX="9" refY="3.5" orient="auto">
      <polygon points="0 0, 10 3.5, 0 7" fill="#ea580c"/>
    </marker>
    <filter id="shadow" x="-4%" y="-4%" width="108%" height="112%">
      <feDropShadow dx="0" dy="2" stdDeviation="3" flood-color="#000000" flood-opacity="0.06"/>
    </filter>
  </defs>

  <rect width="960" height="600" fill="#ffffff"/>

  <!-- Title -->
  <text x="480" y="32" text-anchor="middle" font-size="20" font-weight="700" fill="#111827">Request Flow</text>
  <text x="480" y="50" text-anchor="middle" font-size="12" fill="#6b7280">Prompt &#x2192; agent interface &#x2192; code entities &#x2192; persistence</text>

  <!-- LAYER 1: Natural Language -->
  <rect x="60" y="64" width="840" height="56" rx="8" ry="8" fill="#eff6ff" stroke="#bfdbfe" stroke-width="1" stroke-dasharray="6,3"/>
  <text x="80" y="80" font-size="10" font-weight="600" fill="#2563eb">NATURAL LANGUAGE</text>
  <rect x="360" y="76" width="240" height="34" rx="8" ry="8" fill="#ffffff" stroke="#2563eb" stroke-width="2" filter="url(#shadow)"/>
  <text x="480" y="98" text-anchor="middle" font-size="14" font-weight="600" fill="#1e40af">&quot;Find all TODOs&quot;</text>

  <!-- Arrow -->
  <line x1="480" y1="120" x2="480" y2="146" stroke="#2563eb" stroke-width="2" marker-end="url(#arrow-blue)"/>

  <!-- LAYER 2: Agent Interface -->
  <rect x="60" y="150" width="840" height="80" rx="8" ry="8" fill="#faf5ff" stroke="#e9d5ff" stroke-width="1" stroke-dasharray="6,3"/>
  <text x="80" y="166" font-size="10" font-weight="600" fill="#7c3aed">AGENT INTERFACE</text>
  <rect x="220" y="174" width="200" height="44" rx="8" ry="8" fill="#ffffff" stroke="#d1d5db" stroke-width="1.5" filter="url(#shadow)"/>
  <text x="320" y="195" text-anchor="middle" font-size="13" font-weight="600" fill="#111827">createPostgresVfsTool()</text>
  <text x="320" y="210" text-anchor="middle" font-size="10" fill="#6b7280">factory function</text>

  <rect x="540" y="174" width="200" height="44" rx="8" ry="8" fill="#ffffff" stroke="#d1d5db" stroke-width="1.5" filter="url(#shadow)"/>
  <text x="640" y="195" text-anchor="middle" font-size="13" font-weight="600" fill="#111827">executeCommand()</text>
  <text x="640" y="210" text-anchor="middle" font-size="10" fill="#6b7280">sandbox adapter</text>

  <line x1="420" y1="196" x2="530" y2="196" stroke="#2563eb" stroke-width="1.5" marker-end="url(#arrow-blue)"/>
  <line x1="640" y1="218" x2="640" y2="260" stroke="#2563eb" stroke-width="2" marker-end="url(#arrow-blue)"/>

  <!-- LAYER 3: Code -->
  <rect x="60" y="264" width="840" height="152" rx="8" ry="8" fill="#fff7ed" stroke="#fed7aa" stroke-width="1" stroke-dasharray="6,3"/>
  <text x="80" y="280" font-size="10" font-weight="600" fill="#ea580c">CODE</text>

  <!-- just-bash -->
  <rect x="430" y="288" width="200" height="44" rx="8" ry="8" fill="#ffffff" stroke="#d1d5db" stroke-width="1.5" filter="url(#shadow)"/>
  <text x="530" y="309" text-anchor="middle" font-size="13" font-weight="600" fill="#111827">just-bash</text>
  <text x="530" y="324" text-anchor="middle" font-size="10" fill="#6b7280">interpreter</text>

  <!-- PostgresFs -->
  <rect x="160" y="362" width="200" height="44" rx="8" ry="8" fill="#ffffff" stroke="#d1d5db" stroke-width="1.5" filter="url(#shadow)"/>
  <text x="260" y="383" text-anchor="middle" font-size="13" font-weight="600" fill="#111827">PostgresFs</text>
  <text x="260" y="398" text-anchor="middle" font-size="10" fill="#6b7280">standard ops</text>

  <!-- hybridSearch -->
  <rect x="600" y="362" width="200" height="44" rx="8" ry="8" fill="#ffffff" stroke="#d1d5db" stroke-width="1.5" filter="url(#shadow)"/>
  <text x="700" y="383" text-anchor="middle" font-size="13" font-weight="600" fill="#111827">hybridSearch()</text>
  <text x="700" y="398" text-anchor="middle" font-size="10" fill="#6b7280">custom commands</text>

  <!-- Arrows from just-bash -->
  <path d="M 475,332 L 475,352 L 320,352 L 320,362" stroke="#2563eb" stroke-width="1.5" fill="none" marker-end="url(#arrow-blue)"/>
  <rect x="340" y="336" width="76" height="14" rx="3" fill="#ffffff"/>
  <text x="378" y="347" text-anchor="middle" font-size="9" fill="#6b7280">standard ops</text>

  <path d="M 585,332 L 585,352 L 700,352 L 700,362" stroke="#ea580c" stroke-width="1.5" fill="none" marker-end="url(#arrow-orange)"/>
  <rect x="620" y="336" width="76" height="14" rx="3" fill="#ffffff"/>
  <text x="658" y="347" text-anchor="middle" font-size="9" fill="#6b7280">custom cmd</text>

  <!-- DbClient -->
  <rect x="380" y="430" width="200" height="44" rx="8" ry="8" fill="#ffffff" stroke="#d1d5db" stroke-width="1.5" filter="url(#shadow)"/>
  <text x="480" y="451" text-anchor="middle" font-size="13" font-weight="600" fill="#111827">DbClient</text>
  <text x="480" y="466" text-anchor="middle" font-size="10" fill="#6b7280">postgres.js</text>

  <path d="M 260,406 L 260,452 L 380,452" stroke="#2563eb" stroke-width="1.5" fill="none" marker-end="url(#arrow-blue)"/>
  <path d="M 700,406 L 700,452 L 580,452" stroke="#ea580c" stroke-width="1.5" fill="none" marker-end="url(#arrow-orange)"/>

  <!-- Arrow to persistence -->
  <line x1="480" y1="474" x2="480" y2="504" stroke="#2563eb" stroke-width="2" marker-end="url(#arrow-blue)"/>

  <!-- LAYER 4: Persistence -->
  <rect x="60" y="508" width="840" height="48" rx="8" ry="8" fill="#f0fdf4" stroke="#bbf7d0" stroke-width="1" stroke-dasharray="6,3"/>
  <text x="80" y="524" font-size="10" font-weight="600" fill="#16a34a">PERSISTENCE</text>

  <!-- vfs_files cylinder -->
  <ellipse cx="480" cy="520" rx="90" ry="8" fill="#dcfce7" stroke="#16a34a" stroke-width="1.5"/>
  <rect x="390" y="520" width="180" height="20" fill="#dcfce7" stroke="none"/>
  <line x1="390" y1="520" x2="390" y2="540" stroke="#16a34a" stroke-width="1.5"/>
  <line x1="570" y1="520" x2="570" y2="540" stroke="#16a34a" stroke-width="1.5"/>
  <ellipse cx="480" cy="540" rx="90" ry="8" fill="#dcfce7" stroke="#16a34a" stroke-width="1.5"/>
  <text x="480" y="536" text-anchor="middle" font-size="13" font-weight="600" fill="#166534">vfs_files</text>

  <!-- Legend -->
  <g transform="translate(370, 582)">
    <line x1="0" y1="0" x2="24" y2="0" stroke="#2563eb" stroke-width="2" marker-end="url(#arrow-blue)"/>
    <text x="30" y="4" font-size="10" fill="#6b7280">Main data flow</text>
    <line x1="150" y1="0" x2="174" y2="0" stroke="#ea580c" stroke-width="2" marker-end="url(#arrow-orange)"/>
    <text x="180" y="4" font-size="10" fill="#6b7280">Custom command flow</text>
  </g>
</svg>